<svg width="327" height="59" viewBox="0 0 327 59" fill="none" xmlns="http://www.w3.org/2000/svg">
<g clip-path="url(#clip0_5984_25867)">
<path d="M23.6347 23.0391H17.679V45.3652C17.679 52.7067 14.1033 53.4889 11.8007 53.4889C8.18081 53.4889 6.2214 51.1982 5.91144 46.7843H0C0.464945 53.7571 5.38007 58.886 11.8007 58.886C22.0959 58.886 23.6347 50.416 23.6347 45.3652V23.0391Z" fill="#011740" style="fill:#011740;fill:color(display-p3 0.0039 0.0902 0.2510);fill-opacity:1;"/>
<path d="M26.5239 23.0391V58.886H49.0073V52.8966H32.4686V23.0391H26.5239Z" fill="#011740" style="fill:#011740;fill:color(display-p3 0.0039 0.0902 0.2510);fill-opacity:1;"/>
<path d="M44.38 23.0393L34.8486 11.541L30.3874 6.28906L26.5239 10.9822L36.5202 23.0393H44.38Z" fill="#0451DD" style="fill:#0451DD;fill:color(display-p3 0.0157 0.3176 0.8667);fill-opacity:1;"/>
<path d="M13.6605 23.0413L28.9705 4.59261L25.0959 0L5.87823 23.0413H13.6605Z" fill="#011740" style="fill:#011740;fill:color(display-p3 0.0039 0.0902 0.2510);fill-opacity:1;"/>
<path d="M77.3026 40.1464C77.3026 43.9903 74.8671 47.0073 68.4686 47.0073H56.9557V23.4297H67.0848C73.8487 23.4297 75.9852 26.1339 75.9852 29.9107C75.9852 32.3356 74.3026 34.034 73.7823 34.414C76.0516 35.5537 77.2915 37.6098 77.2915 40.1352L77.3026 40.1464ZM70.6383 30.6482C70.6383 29.0503 69.6088 28.2905 67.4391 28.2905H62.5904V33.2183H67.4391C69.8745 33.2183 70.6383 32.492 70.6383 30.6482ZM67.8265 37.5539H62.6014V42.1354H67.8265C70.0959 42.1354 71.2251 41.3755 71.2251 39.8447C71.2251 38.1126 70.0516 37.5539 67.8265 37.5539Z" fill="#011740" style="fill:#011740;fill:color(display-p3 0.0039 0.0902 0.2510);fill-opacity:1;"/>
<path d="M86.8893 47.0073H81.2546V23.4297H86.8893V47.0073Z" fill="#011740" style="fill:#011740;fill:color(display-p3 0.0039 0.0902 0.2510);fill-opacity:1;"/>
<path d="M110.015 23.4297V28.7039H97.7491V32.7602H107.989V37.688H97.7491V41.7443H110.015V47.0185H92.1144V23.4409H110.015V23.4297Z" fill="#011740" style="fill:#011740;fill:color(display-p3 0.0039 0.0902 0.2510);fill-opacity:1;"/>
<path d="M137.391 47.0073H131.723L119.911 32.5814V47.0073H114.244V23.4297H119.911L131.723 37.8221V23.4297H137.391V47.0073Z" fill="#011740" style="fill:#011740;fill:color(display-p3 0.0039 0.0902 0.2510);fill-opacity:1;"/>
<path d="M160.207 23.4297V28.7039H147.941V32.7602H158.181V37.688H147.941V41.7443H160.207V47.0185H142.306V23.4409H160.207V23.4297Z" fill="#011740" style="fill:#011740;fill:color(display-p3 0.0039 0.0902 0.2510);fill-opacity:1;"/>
<path d="M182.878 30.8823H177.277C177.277 29.6978 175.904 28.1111 173.502 28.1111C171.819 28.1111 169.76 28.8709 169.76 30.223C169.76 31.3628 171.31 31.8209 174.609 32.6813C178.284 33.6535 183.476 34.905 183.476 40.101C183.476 44.6043 179.557 47.4202 174.1 47.4202C166.782 47.4202 163.727 42.4253 163.727 38.749H169.328C169.328 38.749 169.771 42.4923 174.41 42.4923C176.923 42.4923 177.841 41.4196 177.841 40.4139C177.841 38.9277 175.882 38.4026 173.723 37.8885C170.214 37.0505 164.07 35.7431 164.07 30.5024C164.07 26.2003 168.266 23.0156 173.59 23.0156C179.668 23.0156 182.9 27.206 182.9 30.8823H182.878Z" fill="#011740" style="fill:#011740;fill:color(display-p3 0.0039 0.0902 0.2510);fill-opacity:1;"/>
<path d="M215.347 32.2685C215.347 35.6655 213.697 38.5484 211.196 39.9005L216 47.0073H208.993L205.483 41.152H201.365V47.0073H195.731V23.4297H207.033C211.771 23.4297 215.347 27.1395 215.347 32.2685ZM201.365 28.6928V35.8666H206.214C208.14 35.8666 209.679 34.2352 209.679 32.2573C209.679 30.2795 208.129 28.6816 206.247 28.6816H201.365V28.6928Z" fill="#011740" style="fill:#011740;fill:color(display-p3 0.0039 0.0902 0.2510);fill-opacity:1;"/>
<path d="M237.432 43.331H226.162L224.612 47.0073H218.635L228.631 23.4297H234.919L244.948 47.0073H238.937L237.421 43.331H237.432ZM235.472 38.6825L231.83 29.8772L228.122 38.6825H235.472Z" fill="#011740" style="fill:#011740;fill:color(display-p3 0.0039 0.0902 0.2510);fill-opacity:1;"/>
<path d="M254.402 47.0073H248.767V23.4297H254.402V47.0073Z" fill="#011740" style="fill:#011740;fill:color(display-p3 0.0039 0.0902 0.2510);fill-opacity:1;"/>
<path d="M282.066 41.2889C279.974 44.8311 276.088 47.4235 271.14 47.4235C263.823 47.4235 258.498 42.0152 258.498 35.0425C258.498 28.4832 263.823 23.0078 271.14 23.0078C276.122 23.0078 280.04 25.3656 282.133 28.9078L277.362 31.7125C276.266 29.5671 274.096 28.1368 271.14 28.1368C267.055 28.1368 264.199 31.1538 264.199 35.0425C264.199 38.9311 267.055 42.0822 271.14 42.0822C274.029 42.0822 276.155 40.5961 277.284 38.5065L282.055 41.2777L282.066 41.2889Z" fill="#011740" style="fill:#011740;fill:color(display-p3 0.0039 0.0902 0.2510);fill-opacity:1;"/>
<path d="M303.742 23.4297V28.7039H291.476V32.7602H301.716V37.688H291.476V41.7443H303.742V47.0185H285.841V23.4409H303.742V23.4297Z" fill="#011740" style="fill:#011740;fill:color(display-p3 0.0039 0.0902 0.2510);fill-opacity:1;"/>
<path d="M326.413 30.8823H320.812C320.812 29.6978 319.439 28.1111 317.037 28.1111C315.354 28.1111 313.295 28.8709 313.295 30.223C313.295 31.3628 314.845 31.8209 318.144 32.6813C321.819 33.6535 327.011 34.905 327.011 40.101C327.011 44.6043 323.092 47.4202 317.635 47.4202C310.317 47.4202 307.262 42.4253 307.262 38.749H312.863C312.863 38.749 313.306 42.4923 317.945 42.4923C320.458 42.4923 321.376 41.4196 321.376 40.4139C321.376 38.9277 319.417 38.4026 317.258 37.8885C313.749 37.0505 307.605 35.7431 307.605 30.5024C307.605 26.2003 311.801 23.0156 317.125 23.0156C323.203 23.0156 326.435 27.206 326.435 30.8823H326.413Z" fill="#011740" style="fill:#011740;fill:color(display-p3 0.0039 0.0902 0.2510);fill-opacity:1;"/>
<path d="M58.251 58.3755H62.6458V58.8895H57.6864V51.4922H58.2399V58.3755H58.251Z" fill="#011740" style="fill:#011740;fill:color(display-p3 0.0039 0.0902 0.2510);fill-opacity:1;"/>
<path d="M75.0112 58.8895H74.4245L73.5056 56.5653H70.0075L69.0887 58.8895H68.502L71.4355 51.4922H72.0887L75.0222 58.8895H75.0112ZM70.1957 56.0513H73.2953L71.7344 52.0397L70.1957 56.0513Z" fill="#011740" style="fill:#011740;fill:color(display-p3 0.0039 0.0902 0.2510);fill-opacity:1;"/>
<path d="M83.9447 51.3784C84.6199 51.3784 85.1845 51.5125 85.6495 51.7806C86.1144 52.0488 86.4686 52.4623 86.7122 53.0098L86.2472 53.3674C86.0369 52.8422 85.7269 52.4623 85.3395 52.2388C84.952 52.0041 84.4649 51.8924 83.9004 51.8924C83.4686 51.8924 83.0923 51.9594 82.7934 52.1047C82.4945 52.2388 82.262 52.4287 82.0959 52.6522C81.941 52.8757 81.8524 53.1327 81.8524 53.4232C81.8524 53.7696 81.9631 54.049 82.1845 54.2725C82.4059 54.496 82.8155 54.6748 83.4022 54.8089L84.8524 55.1217C85.572 55.2782 86.0812 55.5017 86.369 55.8034C86.6568 56.0939 86.8118 56.4738 86.8118 56.9431C86.8118 57.3454 86.7011 57.703 86.4576 58.0159C86.214 58.3287 85.9041 58.5746 85.4945 58.7422C85.0849 58.9098 84.6089 58.9992 84.0664 58.9992C83.524 58.9992 83.0701 58.9321 82.6605 58.7757C82.2509 58.6304 81.9078 58.4293 81.6199 58.1611C81.3432 57.8929 81.1328 57.5801 81 57.2001L81.4871 56.8202C81.5867 57.1666 81.7638 57.4683 82.0074 57.7253C82.2509 57.9712 82.5498 58.1611 82.9041 58.2952C83.2583 58.4293 83.6568 58.4852 84.0886 58.4852C84.5203 58.4852 84.8745 58.4293 85.1956 58.3064C85.5166 58.1946 85.7712 58.0159 85.9594 57.7924C86.1365 57.5689 86.2362 57.2895 86.2362 56.9655C86.2362 56.6414 86.1255 56.3844 85.9041 56.1721C85.6827 55.9598 85.2952 55.7922 84.7417 55.6804L83.2362 55.3452C82.7712 55.2446 82.3948 55.0994 82.107 54.9318C81.8192 54.7642 81.6089 54.5518 81.476 54.306C81.3432 54.0602 81.2768 53.792 81.2768 53.4791C81.2768 53.0992 81.3875 52.7528 81.5978 52.4287C81.8081 52.1047 82.1181 51.8589 82.5166 51.6577C82.9151 51.4678 83.3911 51.3672 83.9336 51.3672L83.9447 51.3784Z" fill="#011740" style="fill:#011740;fill:color(display-p3 0.0039 0.0902 0.2510);fill-opacity:1;"/>
<path d="M109.627 51.4922V58.8895H109.096V53.3695L109.162 52.0286L106.483 58.8895H105.974L103.295 52.0286H103.284L103.351 53.3695V58.8895H102.819V51.4922H103.649L105.863 57.1017L106.229 58.2303L106.583 57.1128L108.797 51.4922H109.627Z" fill="#011740" style="fill:#011740;fill:color(display-p3 0.0039 0.0902 0.2510);fill-opacity:1;"/>
<path d="M117.332 58.8895V51.4922H122.347V52.0062H117.897V54.8668H121.417V55.392H117.897V58.3755H122.535V58.8895H117.343H117.332Z" fill="#011740" style="fill:#011740;fill:color(display-p3 0.0039 0.0902 0.2510);fill-opacity:1;"/>
<path d="M133.107 51.4922V56.4535C133.107 57.2469 132.908 57.8727 132.498 58.3308C132.089 58.789 131.513 59.0125 130.771 59.0125C130.251 59.0125 129.83 58.9119 129.487 58.6996C129.155 58.4984 128.911 58.2079 128.779 57.8392C128.646 57.4704 128.613 57.0346 128.69 56.5429L129.21 56.42C129.122 57.1017 129.21 57.6157 129.465 57.9732C129.72 58.3196 130.151 58.4984 130.76 58.4984C131.402 58.4984 131.867 58.3085 132.133 57.9285C132.41 57.5486 132.542 57.0123 132.542 56.3306V51.4922H133.096H133.107Z" fill="#011740" style="fill:#011740;fill:color(display-p3 0.0039 0.0902 0.2510);fill-opacity:1;"/>
<path d="M143.635 51.375C144.332 51.375 144.93 51.5314 145.439 51.8443C145.948 52.1572 146.336 52.593 146.601 53.1629C146.878 53.7328 147.011 54.4032 147.011 55.1966C147.011 55.99 146.878 56.6604 146.601 57.2303C146.325 57.8002 145.937 58.236 145.439 58.5489C144.93 58.8617 144.332 59.0182 143.635 59.0182C142.937 59.0182 142.351 58.8617 141.841 58.5489C141.332 58.236 140.945 57.8002 140.668 57.2303C140.391 56.6604 140.258 55.99 140.258 55.1966C140.258 54.4032 140.391 53.7328 140.668 53.1629C140.945 52.593 141.332 52.1572 141.841 51.8443C142.351 51.5314 142.948 51.375 143.635 51.375ZM143.635 51.889C143.059 51.889 142.572 52.0231 142.151 52.2913C141.731 52.5595 141.41 52.9394 141.177 53.4311C140.945 53.9227 140.834 54.515 140.834 55.1966C140.834 55.8782 140.945 56.4593 141.177 56.9621C141.41 57.465 141.731 57.8337 142.151 58.1019C142.572 58.3701 143.059 58.5042 143.635 58.5042C144.21 58.5042 144.708 58.3701 145.129 58.1019C145.539 57.8337 145.871 57.4538 146.092 56.9621C146.325 56.4705 146.435 55.8782 146.435 55.1966C146.435 54.515 146.325 53.9339 146.092 53.4311C145.86 52.9394 145.539 52.5595 145.129 52.2913C144.72 52.0231 144.221 51.889 143.635 51.889Z" fill="#011740" style="fill:#011740;fill:color(display-p3 0.0039 0.0902 0.2510);fill-opacity:1;"/>
<path d="M156.963 51.4922C157.694 51.4922 158.28 51.6821 158.712 52.0509C159.144 52.4196 159.365 52.9337 159.365 53.5929C159.365 54.2522 159.144 54.7551 158.712 55.1126C158.28 55.4702 157.694 55.6602 156.952 55.6602L156.897 55.6937H154.793V58.9007H154.24V51.5034H156.963V51.4922ZM156.952 55.1573C157.55 55.1573 158.004 55.0232 158.314 54.7551C158.624 54.4869 158.79 54.0958 158.79 53.5929C158.79 53.0901 158.635 52.6878 158.314 52.4196C158.004 52.1515 157.55 52.0062 156.952 52.0062H154.793V55.1573H156.952ZM157.384 55.2579L159.753 58.8895H159.1L156.919 55.5708L157.384 55.2579Z" fill="#011740" style="fill:#011740;fill:color(display-p3 0.0039 0.0902 0.2510);fill-opacity:1;"/>
<path d="M166.749 58.8895V51.4922H171.764V52.0062H167.314V54.8668H170.834V55.392H167.314V58.3755H171.952V58.8895H166.76H166.749Z" fill="#011740" style="fill:#011740;fill:color(display-p3 0.0039 0.0902 0.2510);fill-opacity:1;"/>
<path d="M181.196 51.3784C181.871 51.3784 182.435 51.5125 182.9 51.7806C183.365 52.0488 183.72 52.4623 183.963 53.0098L183.498 53.3674C183.288 52.8422 182.978 52.4623 182.59 52.2388C182.203 52.0041 181.716 51.8924 181.151 51.8924C180.72 51.8924 180.343 51.9594 180.044 52.1047C179.745 52.2388 179.513 52.4287 179.347 52.6522C179.192 52.8757 179.103 53.1327 179.103 53.4232C179.103 53.7696 179.214 54.049 179.435 54.2725C179.657 54.496 180.066 54.6748 180.653 54.8089L182.103 55.1217C182.823 55.2782 183.332 55.5017 183.62 55.8034C183.908 56.0939 184.063 56.4738 184.063 56.9431C184.063 57.3454 183.952 57.703 183.709 58.0159C183.465 58.3287 183.155 58.5746 182.745 58.7422C182.336 58.9098 181.86 58.9992 181.317 58.9992C180.775 58.9992 180.321 58.9321 179.911 58.7757C179.502 58.6304 179.159 58.4293 178.871 58.1611C178.594 57.8929 178.384 57.5801 178.251 57.2001L178.738 56.8202C178.838 57.1666 179.015 57.4683 179.258 57.7253C179.502 57.9712 179.801 58.1611 180.155 58.2952C180.509 58.4293 180.908 58.4852 181.34 58.4852C181.771 58.4852 182.126 58.4293 182.447 58.3064C182.768 58.1946 183.022 58.0159 183.21 57.7924C183.388 57.5689 183.487 57.2895 183.487 56.9655C183.487 56.6414 183.376 56.3844 183.155 56.1721C182.934 55.9598 182.546 55.7922 181.993 55.6804L180.487 55.3452C180.022 55.2446 179.646 55.0994 179.358 54.9318C179.07 54.7642 178.86 54.5518 178.727 54.306C178.594 54.0602 178.528 53.792 178.528 53.4791C178.528 53.0992 178.638 52.7528 178.849 52.4287C179.059 52.1047 179.369 51.8589 179.768 51.6577C180.166 51.4678 180.642 51.3672 181.185 51.3672L181.196 51.3784Z" fill="#011740" style="fill:#011740;fill:color(display-p3 0.0039 0.0902 0.2510);fill-opacity:1;"/>
<path d="M202.495 51.4922C203.004 51.4922 203.447 51.5816 203.812 51.7604C204.177 51.9392 204.465 52.185 204.675 52.509C204.875 52.8331 204.985 53.213 204.985 53.66C204.985 54.107 204.886 54.5092 204.675 54.8221C204.465 55.135 204.188 55.392 203.812 55.5708C203.435 55.7496 203.004 55.839 202.495 55.839H200.613V58.9007H200.059V51.5034H202.495V51.4922ZM202.428 55.3026C203.07 55.3026 203.557 55.1573 203.9 54.8668C204.233 54.5763 204.399 54.174 204.399 53.6488C204.399 53.1236 204.233 52.7214 203.9 52.4308C203.568 52.1403 203.081 51.995 202.428 51.995H200.613V55.2914H202.428V55.3026Z" fill="#011740" style="fill:#011740;fill:color(display-p3 0.0039 0.0902 0.2510);fill-opacity:1;"/>
<path d="M214.694 51.4922C215.424 51.4922 216.011 51.6821 216.443 52.0509C216.875 52.4196 217.096 52.9337 217.096 53.5929C217.096 54.2522 216.875 54.7551 216.443 55.1126C216.011 55.4702 215.424 55.6602 214.683 55.6602L214.627 55.6937H212.524V58.9007H211.97V51.5034H214.694V51.4922ZM214.683 55.1573C215.28 55.1573 215.734 55.0232 216.044 54.7551C216.354 54.4869 216.52 54.0958 216.52 53.5929C216.52 53.0901 216.365 52.6878 216.044 52.4196C215.734 52.1515 215.28 52.0062 214.683 52.0062H212.524V55.1573H214.683ZM215.114 55.2579L217.483 58.8895H216.83L214.649 55.5708L215.114 55.2579Z" fill="#011740" style="fill:#011740;fill:color(display-p3 0.0039 0.0902 0.2510);fill-opacity:1;"/>
<path d="M227.347 51.375C228.044 51.375 228.642 51.5314 229.151 51.8443C229.661 52.1572 230.048 52.593 230.314 53.1629C230.591 53.7328 230.723 54.4032 230.723 55.1966C230.723 55.99 230.591 56.6604 230.314 57.2303C230.037 57.8002 229.65 58.236 229.151 58.5489C228.642 58.8617 228.044 59.0182 227.347 59.0182C226.65 59.0182 226.063 58.8617 225.554 58.5489C225.044 58.236 224.657 57.8002 224.38 57.2303C224.103 56.6604 223.971 55.99 223.971 55.1966C223.971 54.4032 224.103 53.7328 224.38 53.1629C224.657 52.593 225.044 52.1572 225.554 51.8443C226.063 51.5314 226.661 51.375 227.347 51.375ZM227.347 51.889C226.771 51.889 226.284 52.0231 225.864 52.2913C225.443 52.5595 225.122 52.9394 224.889 53.4311C224.657 53.9227 224.546 54.515 224.546 55.1966C224.546 55.8782 224.657 56.4593 224.889 56.9621C225.122 57.465 225.443 57.8337 225.864 58.1019C226.284 58.3701 226.771 58.5042 227.347 58.5042C227.923 58.5042 228.421 58.3701 228.841 58.1019C229.251 57.8337 229.583 57.4538 229.805 56.9621C230.037 56.4705 230.148 55.8782 230.148 55.1966C230.148 54.515 230.037 53.9339 229.805 53.4311C229.572 52.9394 229.251 52.5595 228.841 52.2913C228.432 52.0231 227.934 51.889 227.347 51.889Z" fill="#011740" style="fill:#011740;fill:color(display-p3 0.0039 0.0902 0.2510);fill-opacity:1;"/>
<path d="M240.387 51.4922C240.897 51.4922 241.339 51.5816 241.705 51.7604C242.07 51.9392 242.358 52.185 242.568 52.509C242.768 52.8331 242.878 53.213 242.878 53.66C242.878 54.107 242.779 54.5092 242.568 54.8221C242.358 55.135 242.081 55.392 241.705 55.5708C241.328 55.7496 240.897 55.839 240.387 55.839H238.506V58.9007H237.952V51.5034H240.387V51.4922ZM240.321 55.3026C240.963 55.3026 241.45 55.1573 241.793 54.8668C242.125 54.5763 242.292 54.174 242.292 53.6488C242.292 53.1236 242.125 52.7214 241.793 52.4308C241.461 52.1403 240.974 51.995 240.321 51.995H238.506V55.2914H240.321V55.3026Z" fill="#011740" style="fill:#011740;fill:color(display-p3 0.0039 0.0902 0.2510);fill-opacity:1;"/>
<path d="M250.428 51.4922V58.8895H249.875V51.4922H250.428Z" fill="#011740" style="fill:#011740;fill:color(display-p3 0.0039 0.0902 0.2510);fill-opacity:1;"/>
<path d="M258.122 58.8895V51.4922H263.137V52.0062H258.686V54.8668H262.207V55.392H258.686V58.3755H263.325V58.8895H258.133H258.122Z" fill="#011740" style="fill:#011740;fill:color(display-p3 0.0039 0.0902 0.2510);fill-opacity:1;"/>
<path d="M272.624 51.4922C273.797 51.4922 274.694 51.8051 275.325 52.4308C275.956 53.0566 276.277 53.9617 276.277 55.135C276.277 56.3083 275.956 57.2804 275.325 57.9285C274.694 58.5767 273.786 58.8895 272.624 58.8895H270.31V51.4922H272.624ZM272.668 58.3755C273.642 58.3755 274.395 58.0962 274.915 57.5375C275.436 56.9787 275.701 56.1742 275.701 55.135C275.701 54.0958 275.436 53.3583 274.915 52.8219C274.395 52.2856 273.642 52.0062 272.668 52.0062H270.864V58.3755H272.668Z" fill="#011740" style="fill:#011740;fill:color(display-p3 0.0039 0.0902 0.2510);fill-opacity:1;"/>
<path d="M288.908 58.8895H288.321L287.402 56.5653H283.904L282.985 58.8895H282.399L285.332 51.4922H285.985L288.919 58.8895H288.908ZM284.092 56.0513H287.192L285.631 52.0397L284.092 56.0513Z" fill="#011740" style="fill:#011740;fill:color(display-p3 0.0039 0.0902 0.2510);fill-opacity:1;"/>
<path d="M297.974 51.4922C299.148 51.4922 300.044 51.8051 300.675 52.4308C301.306 53.0566 301.627 53.9617 301.627 55.135C301.627 56.3083 301.306 57.2804 300.675 57.9285C300.044 58.5767 299.137 58.8895 297.974 58.8895H295.661V51.4922H297.974ZM298.018 58.3755C298.993 58.3755 299.745 58.0962 300.266 57.5375C300.786 56.9787 301.052 56.1742 301.052 55.135C301.052 54.0958 300.786 53.3583 300.266 52.8219C299.745 52.2856 298.993 52.0062 298.018 52.0062H296.214V58.3755H298.018Z" fill="#011740" style="fill:#011740;fill:color(display-p3 0.0039 0.0902 0.2510);fill-opacity:1;"/>
<path d="M308.856 58.8895V51.4922H313.871V52.0062H309.421V54.8668H312.941V55.392H309.421V58.3755H314.059V58.8895H308.867H308.856Z" fill="#011740" style="fill:#011740;fill:color(display-p3 0.0039 0.0902 0.2510);fill-opacity:1;"/>
<path d="M323.314 51.3784C323.989 51.3784 324.554 51.5125 325.018 51.7806C325.483 52.0488 325.838 52.4623 326.081 53.0098L325.616 53.3674C325.406 52.8422 325.096 52.4623 324.709 52.2388C324.321 52.0041 323.834 51.8924 323.269 51.8924C322.838 51.8924 322.461 51.9594 322.162 52.1047C321.863 52.2388 321.631 52.4287 321.465 52.6522C321.31 52.8757 321.221 53.1327 321.221 53.4232C321.221 53.7696 321.332 54.049 321.554 54.2725C321.775 54.496 322.185 54.6748 322.771 54.8089L324.221 55.1217C324.941 55.2782 325.45 55.5017 325.738 55.8034C326.026 56.0939 326.181 56.4738 326.181 56.9431C326.181 57.3454 326.07 57.703 325.827 58.0159C325.583 58.3287 325.273 58.5746 324.863 58.7422C324.454 58.9098 323.978 58.9992 323.435 58.9992C322.893 58.9992 322.439 58.9321 322.03 58.7757C321.62 58.6304 321.277 58.4293 320.989 58.1611C320.712 57.8929 320.502 57.5801 320.369 57.2001L320.856 56.8202C320.956 57.1666 321.133 57.4683 321.376 57.7253C321.62 57.9712 321.919 58.1611 322.273 58.2952C322.627 58.4293 323.026 58.4852 323.458 58.4852C323.889 58.4852 324.244 58.4293 324.565 58.3064C324.886 58.1946 325.14 58.0159 325.328 57.7924C325.506 57.5689 325.605 57.2895 325.605 56.9655C325.605 56.6414 325.494 56.3844 325.273 56.1721C325.052 55.9598 324.664 55.7922 324.111 55.6804L322.605 55.3452C322.14 55.2446 321.764 55.0994 321.476 54.9318C321.188 54.7642 320.978 54.5518 320.845 54.306C320.712 54.0602 320.646 53.792 320.646 53.4791C320.646 53.0992 320.756 52.7528 320.967 52.4287C321.177 52.1047 321.487 51.8589 321.886 51.6577C322.284 51.4678 322.76 51.3672 323.303 51.3672L323.314 51.3784Z" fill="#011740" style="fill:#011740;fill:color(display-p3 0.0039 0.0902 0.2510);fill-opacity:1;"/>
</g>
<defs>
<clipPath id="clip0_5984_25867">
<rect width="327" height="59" fill="white" style="fill:white;fill-opacity:1;"/>
</clipPath>
</defs>
</svg>
